<svg width="24" height="25" viewBox="0 0 24 25" fill="none" xmlns="http://www.w3.org/2000/svg">
<path d="M2.01562 6.60742H3.98438V20.623H18V22.5918H3.98438C3.45312 22.5918 2.98438 22.4043 2.57812 22.0293C2.20312 21.623 2.01562 21.1543 2.01562 20.623V6.60742ZM11.0156 12.6074L8.01562 16.5918H20.0156L15.9844 11.623L13.0312 15.3262L11.0156 12.6074ZM21.9844 16.5918C21.9844 17.123 21.7812 17.5918 21.375 17.998C21 18.4043 20.5469 18.6074 20.0156 18.6074H8.01562C7.48438 18.6074 7.01562 18.4043 6.60938 17.998C6.20312 17.5918 6 17.123 6 16.5918V4.5918C6 4.06055 6.20312 3.60742 6.60938 3.23242C7.01562 2.82617 7.48438 2.62305 8.01562 2.62305H20.0156C20.5469 2.62305 21 2.82617 21.375 3.23242C21.7812 3.60742 21.9844 4.06055 21.9844 4.5918V16.5918Z" fill="#7489A8"/>
</svg>
