<svg width="24" height="25" viewBox="0 0 24 25" fill="none" xmlns="http://www.w3.org/2000/svg">
<path d="M8.4375 16.1699C9.4375 17.1387 10.625 17.623 12 17.623C13.375 17.623 14.5469 17.1387 15.5156 16.1699C16.5156 15.1699 17.0156 13.9824 17.0156 12.6074C17.0156 11.2324 16.5156 10.0605 15.5156 9.0918C14.5469 8.0918 13.375 7.5918 12 7.5918C10.625 7.5918 9.4375 8.0918 8.4375 9.0918C7.46875 10.0605 6.98438 11.2324 6.98438 12.6074C6.98438 13.9824 7.46875 15.1699 8.4375 16.1699ZM9 2.62305H15L16.8281 4.5918H20.0156C20.5469 4.5918 21 4.79492 21.375 5.20117C21.7812 5.60742 21.9844 6.07617 21.9844 6.60742V18.6074C21.9844 19.1387 21.7812 19.6074 21.375 20.0137C21 20.4199 20.5469 20.623 20.0156 20.623H3.98438C3.45312 20.623 2.98438 20.4199 2.57812 20.0137C2.20312 19.6074 2.01562 19.1387 2.01562 18.6074V6.60742C2.01562 6.07617 2.20312 5.60742 2.57812 5.20117C2.98438 4.79492 3.45312 4.5918 3.98438 4.5918H7.17188L9 2.62305ZM9.75 14.8574C9.125 14.2324 8.8125 13.4824 8.8125 12.6074C8.8125 11.7324 9.125 10.9824 9.75 10.3574C10.375 9.73242 11.125 9.41992 12 9.41992C12.875 9.41992 13.625 9.73242 14.25 10.3574C14.875 10.9824 15.1875 11.7324 15.1875 12.6074C15.1875 13.4824 14.875 14.2324 14.25 14.8574C13.625 15.4824 12.875 15.7949 12 15.7949C11.125 15.7949 10.375 15.4824 9.75 14.8574Z" fill="#7489A8"/>
</svg>
